<svg width="17" height="12" viewBox="0 0 17 12" fill="none" xmlns="http://www.w3.org/2000/svg">
<path d="M16.499 0.409577C16.8068 0.682827 16.9864 1.05968 16.9984 1.45728C17.0104 1.85487 16.8537 2.24066 16.5629 2.52982L7.51018 11.5309C7.36346 11.6765 7.18715 11.793 6.99167 11.8736C6.79618 11.9541 6.58548 11.9971 6.37203 11.9999C6.15857 12.0027 5.94668 11.9652 5.74888 11.8898C5.55107 11.8144 5.37137 11.7026 5.22038 11.5609L0.427784 7.06034C0.145596 6.77596 -0.00802992 6.39983 -0.000727673 6.01118C0.00657458 5.62253 0.174235 5.25172 0.46693 4.97686C0.759626 4.702 1.1545 4.54456 1.56837 4.5377C1.98224 4.53085 2.38279 4.67511 2.68563 4.9401L6.31736 8.34849L14.2411 0.469584C14.5321 0.180545 14.9334 0.0118539 15.3568 0.000601156C15.7802 -0.0106516 16.191 0.136455 16.499 0.409577Z" fill="#185CFF"/>
</svg>
