<svg width="7" height="13" viewBox="0 0 7 13" fill="none" xmlns="http://www.w3.org/2000/svg">
<path d="M0.733184 0.707147C0.877226 0.57009 1.0698 0.495839 1.26857 0.500714C1.46733 0.50559 1.65603 0.589193 1.79318 0.733147L6.79418 5.98315C6.92715 6.12263 7.00133 6.30794 7.00133 6.50065C7.00133 6.69335 6.92715 6.87866 6.79418 7.01815L1.79418 12.2681C1.72629 12.3395 1.645 12.3968 1.55496 12.4368C1.46493 12.4767 1.3679 12.4986 1.26942 12.501C1.17095 12.5035 1.07295 12.4865 0.981026 12.4511C0.889104 12.4157 0.805057 12.3625 0.733684 12.2946C0.66231 12.2268 0.605008 12.1455 0.565049 12.0554C0.525091 11.9654 0.503258 11.8684 0.500797 11.7699C0.498336 11.6714 0.515296 11.5734 0.550708 11.4815C0.58612 11.3896 0.63929 11.3055 0.707184 11.2341L5.21618 6.50015L0.706184 1.76615C0.569255 1.62197 0.49518 1.42933 0.500243 1.23056C0.505306 1.03179 0.589093 0.843162 0.733184 0.706147V0.707147Z" fill="#292D33"/>
</svg>
